<svg width="27" height="27" viewBox="0 0 27 27" fill="none" xmlns="http://www.w3.org/2000/svg">
<path d="M0 7.71429H27V0H0V7.71429ZM1.71429 1.71429H25.2857V6H1.71429V1.71429Z" fill="#5B6C7E"/>
<path d="M0 17.1429H27V9.42859H0V17.1429ZM1.71429 11.1429H25.2857V15.4286H1.71429V11.1429Z" fill="#5B6C7E"/>
<path d="M0 26.7857H27V19.0714H0V26.7857ZM1.71429 20.7857H25.2857V25.0714H1.71429V20.7857Z" fill="#5B6C7E"/>
<path d="M4.71432 3H3.00003V4.71429H4.71432V3Z" fill="#5B6C7E"/>
<path d="M8.14287 3H6.42859V4.71429H8.14287V3Z" fill="#5B6C7E"/>
<path d="M11.5714 3H9.85715V4.71429H11.5714V3Z" fill="#5B6C7E"/>
<path d="M4.71432 12.2144H3.00003V13.9286H4.71432V12.2144Z" fill="#5B6C7E"/>
<path d="M8.14287 12.2144H6.42859V13.9286H8.14287V12.2144Z" fill="#5B6C7E"/>
<path d="M11.5714 12.2144H9.85715V13.9286H11.5714V12.2144Z" fill="#5B6C7E"/>
<path d="M4.71432 22.0714H3.00003V23.7857H4.71432V22.0714Z" fill="#5B6C7E"/>
<path d="M8.14287 22.0714H6.42859V23.7857H8.14287V22.0714Z" fill="#5B6C7E"/>
<path d="M11.5714 22.0714H9.85715V23.7857H11.5714V22.0714Z" fill="#5B6C7E"/>
</svg>
