<svg width="32" height="24" viewBox="0 0 32 24" fill="none" xmlns="http://www.w3.org/2000/svg">
<path d="M19.7468 0.320529L18.6735 0.0262923C18.5354 -0.0197769 18.3993 -0.00528908 18.267 0.069634C18.1342 0.144618 18.0446 0.257184 17.9985 0.407152L11.5431 22.75C11.4971 22.9 11.5115 23.0415 11.5865 23.174C11.6614 23.3068 11.7738 23.3962 11.924 23.4423L12.997 23.7366C13.1354 23.783 13.271 23.7685 13.4037 23.6934C13.5365 23.6181 13.6259 23.5059 13.6719 23.3562L20.1275 1.01296C20.1735 0.862994 20.1592 0.721513 20.0841 0.588701C20.0091 0.455949 19.8969 0.366538 19.7468 0.320529Z" fill="#5B6C7E"/>
<path d="M10.0726 4.68199C10.0726 4.53203 10.0148 4.39921 9.89949 4.28392L9.03405 3.41855C8.9187 3.30319 8.78595 3.24536 8.63598 3.24536C8.48601 3.24536 8.3532 3.30325 8.23791 3.41855L0.173123 11.4833C0.0575865 11.5987 0 11.7314 0 11.8814C0 12.0314 0.0577684 12.1641 0.173123 12.2794L8.23785 20.3442C8.35314 20.4597 8.48571 20.5172 8.63592 20.5172C8.78613 20.5172 8.9187 20.4596 9.03399 20.3442L9.89943 19.4793C10.0148 19.364 10.0726 19.2312 10.0726 19.0811C10.0726 18.9313 10.0148 18.7985 9.89943 18.6832L3.09797 11.8814L9.89949 5.08007C10.015 4.96477 10.0726 4.83196 10.0726 4.68199Z" fill="#5B6C7E"/>
<path d="M31.4977 11.4832L23.4327 3.41842C23.3174 3.30313 23.1846 3.24524 23.0349 3.24524C22.8846 3.24524 22.7523 3.30313 22.6366 3.41842L21.7715 4.28374C21.6562 4.39909 21.5987 4.53166 21.5987 4.68181C21.5987 4.83196 21.6562 4.96459 21.7715 5.07989L28.5732 11.8814L21.7715 18.6833C21.6562 18.7986 21.5987 18.9314 21.5987 19.0811C21.5987 19.2313 21.6562 19.3641 21.7715 19.4794L22.6366 20.3443C22.7523 20.4598 22.8847 20.5173 23.0349 20.5173C23.1846 20.5173 23.3174 20.4596 23.4327 20.3443L31.4977 12.2795C31.613 12.1642 31.6707 12.0312 31.6707 11.8813C31.6707 11.7313 31.613 11.5985 31.4977 11.4832Z" fill="#5B6C7E"/>
</svg>
