<svg width="24" height="30" viewBox="0 0 24 30" fill="none" xmlns="http://www.w3.org/2000/svg">
<path d="M22.8362 20.9371C20.6985 20.2458 19.2618 18.2869 19.2618 16.063C19.2618 14.0852 20.3799 12.3149 22.1809 11.4448C22.344 11.3658 22.4674 11.2222 22.5203 11.0492C22.5738 10.8756 22.5523 10.6883 22.4622 10.5309C22.3885 10.403 20.611 7.39906 16.7774 7.39906C15.1742 7.39906 13.4406 7.92713 11.6194 8.96892C10.8615 8.5159 9.01359 7.55051 7.03381 7.55051C5.98159 7.55051 5.03642 7.82336 4.22439 8.36121C3.63365 8.69022 -2.15431 12.2 0.869278 21.5905C0.958058 21.8007 3.06771 26.7433 5.57232 28.5984C5.77009 28.7773 6.59125 29.447 7.80341 29.447C8.54755 29.447 9.28971 29.1989 10.0097 28.71C10.2382 28.6167 11.2225 28.2394 12.2735 28.2394C12.9523 28.2394 13.5189 28.3967 13.966 28.7146C14.0137 28.7473 15.1449 29.511 16.4654 29.511C17.3245 29.511 18.0934 29.1859 18.6913 28.5704C19.0157 28.289 21.803 25.7922 23.2527 21.8477C23.2847 21.7609 23.2932 21.6055 23.2867 21.5135C23.2671 21.2465 23.0889 21.0193 22.8362 20.9371ZM17.8192 27.5964C17.8022 27.6115 17.7846 27.6271 17.7689 27.6441C17.4106 28.0214 16.9837 28.2042 16.4654 28.2042C15.5574 28.2042 14.7128 27.6428 14.7121 27.6428C14.0489 27.1715 13.2284 26.9326 12.2728 26.9326C10.7924 26.9326 9.48096 27.5136 9.42617 27.5384C9.38895 27.5547 9.35306 27.5756 9.31977 27.5984C8.80475 27.9581 8.29495 28.1402 7.80345 28.1402C6.98879 28.1402 6.45159 27.6324 6.4503 27.6317C6.42613 27.6075 6.40068 27.586 6.37328 27.5658C4.14805 25.943 2.09384 21.1349 2.09122 21.1349C-0.701232 12.4552 4.62913 9.61709 4.85498 9.50221C4.87979 9.4898 4.90391 9.47546 4.92678 9.45978C5.52468 9.05835 6.23358 8.85469 7.03256 8.85469C9.15009 8.85469 11.2147 10.2555 11.2356 10.2698C11.4465 10.4147 11.7239 10.4232 11.9432 10.2907C13.6854 9.23716 15.3114 8.70323 16.7755 8.70323C18.9772 8.70323 20.3251 9.91212 20.9381 10.6426C19.0804 11.8214 17.9544 13.8358 17.9544 16.0617C17.9544 18.6315 19.4792 20.9181 21.8108 21.9417C20.3728 25.396 17.846 27.5736 17.8192 27.5964ZM11.4438 7.85924C11.4582 7.85924 11.4732 7.8586 11.4882 7.8573C11.5548 7.85274 18.1097 7.32988 17.7546 0.618325C17.7448 0.439473 17.6625 0.271733 17.5261 0.156164C17.389 0.039948 17.2102 -0.0161811 17.0333 0.00406344C16.9752 0.0106087 11.1886 0.707751 10.7924 7.16671C10.7806 7.35404 10.8505 7.53746 10.9843 7.66996C11.1063 7.79136 11.2721 7.85924 11.4438 7.85924ZM16.455 1.45642C16.2924 5.0263 13.5672 6.10725 12.1834 6.42645C12.7258 2.95577 15.2056 1.81477 16.455 1.45642Z" fill="#5B6C7E"/>
</svg>
